<mxfile host="app.diagrams.net" modified="2021-09-29T14:55:19.786Z" agent="5.0 (Windows NT 10.0; Win64; x64) AppleWebKit/537.36 (KHTML, like Gecko) Chrome/94.0.4606.61 Safari/537.36" etag="4agURxDgpP51CyjZ_WNP" version="15.3.8" type="github" pages="3">
  <diagram id="C5RBs43oDa-KdzZeNtuy" name="Page-1">
    <mxGraphModel dx="782" dy="706" grid="0" gridSize="10" guides="1" tooltips="1" connect="1" arrows="1" fold="1" page="1" pageScale="1" pageWidth="827" pageHeight="1169" math="0" shadow="0">
      <root>
        <mxCell id="WIyWlLk6GJQsqaUBKTNV-0" />
        <mxCell id="WIyWlLk6GJQsqaUBKTNV-1" parent="WIyWlLk6GJQsqaUBKTNV-0" />
        <mxCell id="WIyWlLk6GJQsqaUBKTNV-2" value="" style="rounded=0;html=1;jettySize=auto;orthogonalLoop=1;fontSize=11;endArrow=block;endFill=0;endSize=8;strokeWidth=1;shadow=0;labelBackgroundColor=none;edgeStyle=orthogonalEdgeStyle;opacity=80;" parent="WIyWlLk6GJQsqaUBKTNV-1" source="WIyWlLk6GJQsqaUBKTNV-3" target="WIyWlLk6GJQsqaUBKTNV-6" edge="1">
          <mxGeometry relative="1" as="geometry" />
        </mxCell>
        <mxCell id="WIyWlLk6GJQsqaUBKTNV-3" value="Đăng nhập" style="rounded=1;whiteSpace=wrap;html=1;fontSize=12;glass=0;strokeWidth=1;shadow=0;opacity=80;" parent="WIyWlLk6GJQsqaUBKTNV-1" vertex="1">
          <mxGeometry x="160" y="70" width="120" height="40" as="geometry" />
        </mxCell>
        <mxCell id="WIyWlLk6GJQsqaUBKTNV-4" value="Yes" style="rounded=0;html=1;jettySize=auto;orthogonalLoop=1;fontSize=11;endArrow=block;endFill=0;endSize=8;strokeWidth=1;shadow=0;labelBackgroundColor=none;edgeStyle=orthogonalEdgeStyle;opacity=80;" parent="WIyWlLk6GJQsqaUBKTNV-1" source="WIyWlLk6GJQsqaUBKTNV-6" edge="1">
          <mxGeometry y="20" relative="1" as="geometry">
            <mxPoint as="offset" />
            <mxPoint x="220" y="290" as="targetPoint" />
          </mxGeometry>
        </mxCell>
        <mxCell id="WIyWlLk6GJQsqaUBKTNV-6" value="" style="rhombus;whiteSpace=wrap;html=1;shadow=0;fontFamily=Helvetica;fontSize=12;align=center;strokeWidth=1;spacing=6;spacingTop=-4;opacity=80;" parent="WIyWlLk6GJQsqaUBKTNV-1" vertex="1">
          <mxGeometry x="170" y="170" width="100" height="60" as="geometry" />
        </mxCell>
        <mxCell id="WIyWlLk6GJQsqaUBKTNV-9" value="" style="edgeStyle=orthogonalEdgeStyle;rounded=0;html=1;jettySize=auto;orthogonalLoop=1;fontSize=11;endArrow=block;endFill=0;endSize=8;strokeWidth=1;shadow=0;labelBackgroundColor=none;entryX=0;entryY=0.5;entryDx=0;entryDy=0;opacity=80;" parent="WIyWlLk6GJQsqaUBKTNV-1" target="WIyWlLk6GJQsqaUBKTNV-12" edge="1">
          <mxGeometry y="10" relative="1" as="geometry">
            <mxPoint as="offset" />
            <mxPoint x="260" y="300" as="sourcePoint" />
            <mxPoint x="310" y="330" as="targetPoint" />
          </mxGeometry>
        </mxCell>
        <mxCell id="WIyWlLk6GJQsqaUBKTNV-11" value="Trang quản trị tài khoản" style="rounded=1;whiteSpace=wrap;html=1;fontSize=12;glass=0;strokeWidth=1;shadow=0;opacity=80;" parent="WIyWlLk6GJQsqaUBKTNV-1" vertex="1">
          <mxGeometry x="160" y="430" width="120" height="40" as="geometry" />
        </mxCell>
        <mxCell id="WIyWlLk6GJQsqaUBKTNV-12" value="Thông báo đăng nhập thành công" style="rounded=1;whiteSpace=wrap;html=1;fontSize=12;glass=0;strokeWidth=1;shadow=0;opacity=80;" parent="WIyWlLk6GJQsqaUBKTNV-1" vertex="1">
          <mxGeometry x="320" y="310" width="120" height="40" as="geometry" />
        </mxCell>
        <mxCell id="V7DkwwQcr6JRiDlDcgvB-3" value="" style="endArrow=none;html=1;exitX=1;exitY=0.5;exitDx=0;exitDy=0;opacity=80;" edge="1" parent="WIyWlLk6GJQsqaUBKTNV-1" source="WIyWlLk6GJQsqaUBKTNV-6">
          <mxGeometry width="50" height="50" relative="1" as="geometry">
            <mxPoint x="380" y="390" as="sourcePoint" />
            <mxPoint x="380" y="200" as="targetPoint" />
          </mxGeometry>
        </mxCell>
        <mxCell id="V7DkwwQcr6JRiDlDcgvB-5" value="" style="endArrow=none;html=1;opacity=80;" edge="1" parent="WIyWlLk6GJQsqaUBKTNV-1">
          <mxGeometry width="50" height="50" relative="1" as="geometry">
            <mxPoint x="379.5" y="200" as="sourcePoint" />
            <mxPoint x="380" y="100" as="targetPoint" />
          </mxGeometry>
        </mxCell>
        <mxCell id="V7DkwwQcr6JRiDlDcgvB-6" value="" style="endArrow=classic;html=1;entryX=1;entryY=0.75;entryDx=0;entryDy=0;opacity=80;" edge="1" parent="WIyWlLk6GJQsqaUBKTNV-1" target="WIyWlLk6GJQsqaUBKTNV-3">
          <mxGeometry width="50" height="50" relative="1" as="geometry">
            <mxPoint x="380" y="100" as="sourcePoint" />
            <mxPoint x="430" y="340" as="targetPoint" />
          </mxGeometry>
        </mxCell>
        <mxCell id="V7DkwwQcr6JRiDlDcgvB-7" value="sai tài khoản" style="whiteSpace=wrap;html=1;opacity=80;" vertex="1" parent="WIyWlLk6GJQsqaUBKTNV-1">
          <mxGeometry x="280" y="170" width="90" height="30" as="geometry" />
        </mxCell>
        <mxCell id="V7DkwwQcr6JRiDlDcgvB-9" value="trang admin" style="rounded=1;whiteSpace=wrap;html=1;fontSize=12;glass=0;strokeWidth=1;shadow=0;opacity=80;" vertex="1" parent="WIyWlLk6GJQsqaUBKTNV-1">
          <mxGeometry x="20" y="310" width="120" height="40" as="geometry" />
        </mxCell>
        <mxCell id="V7DkwwQcr6JRiDlDcgvB-10" value="" style="shape=link;html=1;opacity=80;" edge="1" parent="WIyWlLk6GJQsqaUBKTNV-1">
          <mxGeometry width="100" relative="1" as="geometry">
            <mxPoint x="170" y="290" as="sourcePoint" />
            <mxPoint x="270" y="290" as="targetPoint" />
          </mxGeometry>
        </mxCell>
        <mxCell id="V7DkwwQcr6JRiDlDcgvB-12" value="" style="edgeStyle=orthogonalEdgeStyle;rounded=0;html=1;jettySize=auto;orthogonalLoop=1;fontSize=11;endArrow=block;endFill=0;endSize=8;strokeWidth=1;shadow=0;labelBackgroundColor=none;entryX=1;entryY=0.5;entryDx=0;entryDy=0;opacity=80;" edge="1" parent="WIyWlLk6GJQsqaUBKTNV-1" target="V7DkwwQcr6JRiDlDcgvB-9">
          <mxGeometry y="10" relative="1" as="geometry">
            <mxPoint as="offset" />
            <mxPoint x="190" y="300" as="sourcePoint" />
            <mxPoint x="330" y="340" as="targetPoint" />
          </mxGeometry>
        </mxCell>
        <mxCell id="V7DkwwQcr6JRiDlDcgvB-15" value="" style="shape=link;html=1;width=-4;opacity=80;" edge="1" parent="WIyWlLk6GJQsqaUBKTNV-1">
          <mxGeometry width="100" relative="1" as="geometry">
            <mxPoint x="170" y="360" as="sourcePoint" />
            <mxPoint x="270" y="360" as="targetPoint" />
          </mxGeometry>
        </mxCell>
        <mxCell id="V7DkwwQcr6JRiDlDcgvB-16" value="" style="endArrow=classic;html=1;exitX=1;exitY=0.75;exitDx=0;exitDy=0;opacity=80;" edge="1" parent="WIyWlLk6GJQsqaUBKTNV-1" source="V7DkwwQcr6JRiDlDcgvB-9">
          <mxGeometry width="50" height="50" relative="1" as="geometry">
            <mxPoint x="380" y="390" as="sourcePoint" />
            <mxPoint x="210" y="360" as="targetPoint" />
          </mxGeometry>
        </mxCell>
        <mxCell id="V7DkwwQcr6JRiDlDcgvB-18" value="" style="endArrow=classic;html=1;exitX=0;exitY=0.75;exitDx=0;exitDy=0;opacity=80;" edge="1" parent="WIyWlLk6GJQsqaUBKTNV-1" source="WIyWlLk6GJQsqaUBKTNV-12">
          <mxGeometry width="50" height="50" relative="1" as="geometry">
            <mxPoint x="380" y="390" as="sourcePoint" />
            <mxPoint x="240" y="360" as="targetPoint" />
          </mxGeometry>
        </mxCell>
        <mxCell id="V7DkwwQcr6JRiDlDcgvB-19" value="" style="endArrow=classic;html=1;entryX=0.5;entryY=0;entryDx=0;entryDy=0;opacity=80;" edge="1" parent="WIyWlLk6GJQsqaUBKTNV-1" target="WIyWlLk6GJQsqaUBKTNV-11">
          <mxGeometry width="50" height="50" relative="1" as="geometry">
            <mxPoint x="220" y="360" as="sourcePoint" />
            <mxPoint x="430" y="340" as="targetPoint" />
          </mxGeometry>
        </mxCell>
        <mxCell id="V7DkwwQcr6JRiDlDcgvB-20" value="Chọn chức năng" style="rounded=1;whiteSpace=wrap;html=1;fontSize=12;glass=0;strokeWidth=1;shadow=0;opacity=80;" vertex="1" parent="WIyWlLk6GJQsqaUBKTNV-1">
          <mxGeometry x="160" y="520" width="120" height="40" as="geometry" />
        </mxCell>
        <mxCell id="V7DkwwQcr6JRiDlDcgvB-22" value="" style="endArrow=classic;html=1;exitX=0.5;exitY=1;exitDx=0;exitDy=0;opacity=80;" edge="1" parent="WIyWlLk6GJQsqaUBKTNV-1" source="WIyWlLk6GJQsqaUBKTNV-11">
          <mxGeometry width="50" height="50" relative="1" as="geometry">
            <mxPoint x="380" y="380" as="sourcePoint" />
            <mxPoint x="220" y="520" as="targetPoint" />
          </mxGeometry>
        </mxCell>
        <mxCell id="V7DkwwQcr6JRiDlDcgvB-23" value="Nhập thông tin" style="rounded=1;whiteSpace=wrap;html=1;fontSize=12;glass=0;strokeWidth=1;shadow=0;opacity=80;" vertex="1" parent="WIyWlLk6GJQsqaUBKTNV-1">
          <mxGeometry x="160" y="610" width="120" height="40" as="geometry" />
        </mxCell>
        <mxCell id="V7DkwwQcr6JRiDlDcgvB-24" value="" style="endArrow=classic;html=1;exitX=0.5;exitY=1;exitDx=0;exitDy=0;entryX=0.5;entryY=0;entryDx=0;entryDy=0;opacity=80;" edge="1" parent="WIyWlLk6GJQsqaUBKTNV-1" source="V7DkwwQcr6JRiDlDcgvB-20" target="V7DkwwQcr6JRiDlDcgvB-23">
          <mxGeometry width="50" height="50" relative="1" as="geometry">
            <mxPoint x="380" y="490" as="sourcePoint" />
            <mxPoint x="430" y="440" as="targetPoint" />
          </mxGeometry>
        </mxCell>
        <mxCell id="V7DkwwQcr6JRiDlDcgvB-26" value="" style="endArrow=none;html=1;exitX=1;exitY=0.5;exitDx=0;exitDy=0;opacity=80;" edge="1" parent="WIyWlLk6GJQsqaUBKTNV-1" source="V7DkwwQcr6JRiDlDcgvB-23">
          <mxGeometry width="50" height="50" relative="1" as="geometry">
            <mxPoint x="380" y="590" as="sourcePoint" />
            <mxPoint x="400" y="630" as="targetPoint" />
          </mxGeometry>
        </mxCell>
        <mxCell id="V7DkwwQcr6JRiDlDcgvB-27" value="" style="endArrow=none;html=1;opacity=80;" edge="1" parent="WIyWlLk6GJQsqaUBKTNV-1">
          <mxGeometry width="50" height="50" relative="1" as="geometry">
            <mxPoint x="400" y="630" as="sourcePoint" />
            <mxPoint x="400" y="540" as="targetPoint" />
          </mxGeometry>
        </mxCell>
        <mxCell id="V7DkwwQcr6JRiDlDcgvB-29" value="" style="endArrow=classic;html=1;entryX=1;entryY=0.5;entryDx=0;entryDy=0;opacity=80;" edge="1" parent="WIyWlLk6GJQsqaUBKTNV-1" target="V7DkwwQcr6JRiDlDcgvB-20">
          <mxGeometry width="50" height="50" relative="1" as="geometry">
            <mxPoint x="400" y="540" as="sourcePoint" />
            <mxPoint x="430" y="540" as="targetPoint" />
          </mxGeometry>
        </mxCell>
        <mxCell id="V7DkwwQcr6JRiDlDcgvB-30" value="sai thông tin" style="rounded=1;whiteSpace=wrap;html=1;opacity=80;" vertex="1" parent="WIyWlLk6GJQsqaUBKTNV-1">
          <mxGeometry x="310" y="600" width="76" height="30" as="geometry" />
        </mxCell>
        <mxCell id="V7DkwwQcr6JRiDlDcgvB-31" value="" style="rhombus;whiteSpace=wrap;html=1;opacity=80;" vertex="1" parent="WIyWlLk6GJQsqaUBKTNV-1">
          <mxGeometry x="170" y="700" width="100" height="50" as="geometry" />
        </mxCell>
        <mxCell id="V7DkwwQcr6JRiDlDcgvB-33" value="" style="endArrow=classic;html=1;exitX=0.5;exitY=1;exitDx=0;exitDy=0;entryX=0.5;entryY=0;entryDx=0;entryDy=0;opacity=80;" edge="1" parent="WIyWlLk6GJQsqaUBKTNV-1" source="V7DkwwQcr6JRiDlDcgvB-23" target="V7DkwwQcr6JRiDlDcgvB-31">
          <mxGeometry width="50" height="50" relative="1" as="geometry">
            <mxPoint x="380" y="490" as="sourcePoint" />
            <mxPoint x="430" y="440" as="targetPoint" />
          </mxGeometry>
        </mxCell>
        <mxCell id="V7DkwwQcr6JRiDlDcgvB-35" value="Thông báo thành công" style="rounded=1;whiteSpace=wrap;html=1;fontSize=12;glass=0;strokeWidth=1;shadow=0;opacity=80;" vertex="1" parent="WIyWlLk6GJQsqaUBKTNV-1">
          <mxGeometry x="160" y="790" width="120" height="40" as="geometry" />
        </mxCell>
        <mxCell id="V7DkwwQcr6JRiDlDcgvB-36" value="" style="endArrow=classic;html=1;exitX=0.5;exitY=1;exitDx=0;exitDy=0;opacity=80;" edge="1" parent="WIyWlLk6GJQsqaUBKTNV-1" source="V7DkwwQcr6JRiDlDcgvB-31" target="V7DkwwQcr6JRiDlDcgvB-35">
          <mxGeometry width="50" height="50" relative="1" as="geometry">
            <mxPoint x="380" y="680" as="sourcePoint" />
            <mxPoint x="430" y="630" as="targetPoint" />
          </mxGeometry>
        </mxCell>
        <mxCell id="V7DkwwQcr6JRiDlDcgvB-37" value="" style="endArrow=classic;html=1;opacity=80;" edge="1" parent="WIyWlLk6GJQsqaUBKTNV-1">
          <mxGeometry width="50" height="50" relative="1" as="geometry">
            <mxPoint x="280" y="810" as="sourcePoint" />
            <mxPoint x="510" y="810" as="targetPoint" />
          </mxGeometry>
        </mxCell>
        <mxCell id="V7DkwwQcr6JRiDlDcgvB-38" value="" style="ellipse;shape=doubleEllipse;whiteSpace=wrap;html=1;aspect=fixed;strokeColor=#000033;opacity=80;" vertex="1" parent="WIyWlLk6GJQsqaUBKTNV-1">
          <mxGeometry x="510" y="800" width="25" height="25" as="geometry" />
        </mxCell>
      </root>
    </mxGraphModel>
  </diagram>
  <diagram id="ykFhUB8AY5Kkw9Ysi778" name="Page-2">
    <mxGraphModel dx="1043" dy="941" grid="1" gridSize="10" guides="1" tooltips="1" connect="1" arrows="1" fold="1" page="1" pageScale="1" pageWidth="827" pageHeight="1169" background="none" math="0" shadow="0">
      <root>
        <mxCell id="itMjBbJYnPVh6DlZqISK-0" />
        <mxCell id="itMjBbJYnPVh6DlZqISK-1" parent="itMjBbJYnPVh6DlZqISK-0" />
        <mxCell id="LQT31I-uwIE2f66V96Cz-0" value="" style="ellipse;shape=doubleEllipse;whiteSpace=wrap;html=1;aspect=fixed;strokeColor=#000033;opacity=80;" vertex="1" parent="itMjBbJYnPVh6DlZqISK-1">
          <mxGeometry x="210" y="110" width="30" height="30" as="geometry" />
        </mxCell>
        <mxCell id="LQT31I-uwIE2f66V96Cz-1" value="" style="endArrow=classic;html=1;opacity=80;exitX=0.5;exitY=1;exitDx=0;exitDy=0;" edge="1" parent="itMjBbJYnPVh6DlZqISK-1" source="LQT31I-uwIE2f66V96Cz-0" target="LQT31I-uwIE2f66V96Cz-2">
          <mxGeometry width="50" height="50" relative="1" as="geometry">
            <mxPoint x="380" y="380" as="sourcePoint" />
            <mxPoint x="225" y="180" as="targetPoint" />
          </mxGeometry>
        </mxCell>
        <mxCell id="LQT31I-uwIE2f66V96Cz-8" style="edgeStyle=orthogonalEdgeStyle;rounded=0;orthogonalLoop=1;jettySize=auto;html=1;exitX=0.5;exitY=1;exitDx=0;exitDy=0;entryX=0.5;entryY=0;entryDx=0;entryDy=0;opacity=80;" edge="1" parent="itMjBbJYnPVh6DlZqISK-1" source="LQT31I-uwIE2f66V96Cz-2" target="LQT31I-uwIE2f66V96Cz-3">
          <mxGeometry relative="1" as="geometry" />
        </mxCell>
        <mxCell id="LQT31I-uwIE2f66V96Cz-2" value="Đăng nhập" style="rounded=1;whiteSpace=wrap;html=1;strokeColor=#000033;opacity=80;" vertex="1" parent="itMjBbJYnPVh6DlZqISK-1">
          <mxGeometry x="172.5" y="170" width="105" height="50" as="geometry" />
        </mxCell>
        <mxCell id="LQT31I-uwIE2f66V96Cz-6" style="edgeStyle=orthogonalEdgeStyle;rounded=0;orthogonalLoop=1;jettySize=auto;html=1;exitX=0.5;exitY=1;exitDx=0;exitDy=0;entryX=0.443;entryY=-0.06;entryDx=0;entryDy=0;entryPerimeter=0;opacity=80;" edge="1" parent="itMjBbJYnPVh6DlZqISK-1" source="LQT31I-uwIE2f66V96Cz-3" target="LQT31I-uwIE2f66V96Cz-4">
          <mxGeometry relative="1" as="geometry" />
        </mxCell>
        <mxCell id="LQT31I-uwIE2f66V96Cz-3" value="Hiển thị trang đang nhập" style="rounded=1;whiteSpace=wrap;html=1;strokeColor=#000033;opacity=80;" vertex="1" parent="itMjBbJYnPVh6DlZqISK-1">
          <mxGeometry x="126.25" y="260" width="197.5" height="60" as="geometry" />
        </mxCell>
        <mxCell id="LQT31I-uwIE2f66V96Cz-9" style="edgeStyle=orthogonalEdgeStyle;rounded=0;orthogonalLoop=1;jettySize=auto;html=1;exitX=0.5;exitY=1;exitDx=0;exitDy=0;opacity=80;" edge="1" parent="itMjBbJYnPVh6DlZqISK-1" source="LQT31I-uwIE2f66V96Cz-4" target="LQT31I-uwIE2f66V96Cz-5">
          <mxGeometry relative="1" as="geometry" />
        </mxCell>
        <mxCell id="LQT31I-uwIE2f66V96Cz-4" value="Nhập thông tiin" style="rounded=1;whiteSpace=wrap;html=1;strokeColor=#000033;opacity=80;" vertex="1" parent="itMjBbJYnPVh6DlZqISK-1">
          <mxGeometry x="179" y="370" width="105" height="50" as="geometry" />
        </mxCell>
        <mxCell id="LQT31I-uwIE2f66V96Cz-11" value="" style="edgeStyle=orthogonalEdgeStyle;rounded=0;orthogonalLoop=1;jettySize=auto;html=1;opacity=80;" edge="1" parent="itMjBbJYnPVh6DlZqISK-1" source="LQT31I-uwIE2f66V96Cz-5" target="LQT31I-uwIE2f66V96Cz-4">
          <mxGeometry relative="1" as="geometry" />
        </mxCell>
        <mxCell id="LQT31I-uwIE2f66V96Cz-13" style="edgeStyle=orthogonalEdgeStyle;rounded=0;orthogonalLoop=1;jettySize=auto;html=1;exitX=0.5;exitY=1;exitDx=0;exitDy=0;entryX=0.5;entryY=0;entryDx=0;entryDy=0;opacity=80;" edge="1" parent="itMjBbJYnPVh6DlZqISK-1" source="LQT31I-uwIE2f66V96Cz-5" target="LQT31I-uwIE2f66V96Cz-10">
          <mxGeometry relative="1" as="geometry" />
        </mxCell>
        <mxCell id="LQT31I-uwIE2f66V96Cz-5" value="Nhấn nút dăng nhập" style="rounded=1;whiteSpace=wrap;html=1;strokeColor=#000033;opacity=80;" vertex="1" parent="itMjBbJYnPVh6DlZqISK-1">
          <mxGeometry x="179" y="470" width="105" height="50" as="geometry" />
        </mxCell>
        <mxCell id="LQT31I-uwIE2f66V96Cz-15" style="edgeStyle=orthogonalEdgeStyle;rounded=0;orthogonalLoop=1;jettySize=auto;html=1;exitX=0.5;exitY=1;exitDx=0;exitDy=0;opacity=80;" edge="1" parent="itMjBbJYnPVh6DlZqISK-1" source="LQT31I-uwIE2f66V96Cz-10">
          <mxGeometry relative="1" as="geometry">
            <mxPoint x="232" y="680" as="targetPoint" />
          </mxGeometry>
        </mxCell>
        <mxCell id="LQT31I-uwIE2f66V96Cz-16" style="edgeStyle=orthogonalEdgeStyle;rounded=0;orthogonalLoop=1;jettySize=auto;html=1;exitX=1;exitY=0.5;exitDx=0;exitDy=0;opacity=80;" edge="1" parent="itMjBbJYnPVh6DlZqISK-1" source="LQT31I-uwIE2f66V96Cz-10" target="LQT31I-uwIE2f66V96Cz-17">
          <mxGeometry relative="1" as="geometry">
            <mxPoint x="500" y="590" as="targetPoint" />
          </mxGeometry>
        </mxCell>
        <mxCell id="LQT31I-uwIE2f66V96Cz-10" value="" style="rhombus;whiteSpace=wrap;html=1;strokeColor=#000033;opacity=80;" vertex="1" parent="itMjBbJYnPVh6DlZqISK-1">
          <mxGeometry x="175.75" y="560" width="111.5" height="60" as="geometry" />
        </mxCell>
        <mxCell id="LQT31I-uwIE2f66V96Cz-14" value="" style="shape=link;html=1;opacity=80;" edge="1" parent="itMjBbJYnPVh6DlZqISK-1">
          <mxGeometry width="100" relative="1" as="geometry">
            <mxPoint x="100" y="680" as="sourcePoint" />
            <mxPoint x="370" y="680" as="targetPoint" />
          </mxGeometry>
        </mxCell>
        <mxCell id="LQT31I-uwIE2f66V96Cz-17" value="" style="ellipse;shape=doubleEllipse;whiteSpace=wrap;html=1;aspect=fixed;strokeColor=#000033;opacity=80;" vertex="1" parent="itMjBbJYnPVh6DlZqISK-1">
          <mxGeometry x="460" y="575" width="30" height="30" as="geometry" />
        </mxCell>
        <mxCell id="LQT31I-uwIE2f66V96Cz-23" style="edgeStyle=orthogonalEdgeStyle;rounded=0;orthogonalLoop=1;jettySize=auto;html=1;exitX=0.5;exitY=1;exitDx=0;exitDy=0;opacity=80;" edge="1" parent="itMjBbJYnPVh6DlZqISK-1" source="LQT31I-uwIE2f66V96Cz-18">
          <mxGeometry relative="1" as="geometry">
            <mxPoint x="200" y="840" as="targetPoint" />
          </mxGeometry>
        </mxCell>
        <mxCell id="LQT31I-uwIE2f66V96Cz-18" value="Trang chủ" style="rounded=1;whiteSpace=wrap;html=1;strokeColor=#000033;opacity=80;" vertex="1" parent="itMjBbJYnPVh6DlZqISK-1">
          <mxGeometry x="50" y="750" width="105" height="50" as="geometry" />
        </mxCell>
        <mxCell id="LQT31I-uwIE2f66V96Cz-24" style="edgeStyle=orthogonalEdgeStyle;rounded=0;orthogonalLoop=1;jettySize=auto;html=1;exitX=0.5;exitY=1;exitDx=0;exitDy=0;opacity=80;" edge="1" parent="itMjBbJYnPVh6DlZqISK-1" source="LQT31I-uwIE2f66V96Cz-19">
          <mxGeometry relative="1" as="geometry">
            <mxPoint x="260" y="840" as="targetPoint" />
          </mxGeometry>
        </mxCell>
        <mxCell id="LQT31I-uwIE2f66V96Cz-19" value="Thông báo đăng nhập thành công" style="rounded=1;whiteSpace=wrap;html=1;strokeColor=#000033;opacity=80;" vertex="1" parent="itMjBbJYnPVh6DlZqISK-1">
          <mxGeometry x="340" y="750" width="105" height="50" as="geometry" />
        </mxCell>
        <mxCell id="LQT31I-uwIE2f66V96Cz-20" value="" style="shape=link;html=1;opacity=80;" edge="1" parent="itMjBbJYnPVh6DlZqISK-1">
          <mxGeometry width="100" relative="1" as="geometry">
            <mxPoint x="160" y="840" as="sourcePoint" />
            <mxPoint x="290" y="840" as="targetPoint" />
            <Array as="points">
              <mxPoint x="220" y="840" />
            </Array>
          </mxGeometry>
        </mxCell>
        <mxCell id="LQT31I-uwIE2f66V96Cz-21" value="" style="endArrow=classic;html=1;opacity=80;" edge="1" parent="itMjBbJYnPVh6DlZqISK-1">
          <mxGeometry width="50" height="50" relative="1" as="geometry">
            <mxPoint x="230" y="840" as="sourcePoint" />
            <mxPoint x="230" y="880" as="targetPoint" />
          </mxGeometry>
        </mxCell>
        <mxCell id="LQT31I-uwIE2f66V96Cz-22" value="" style="ellipse;shape=doubleEllipse;whiteSpace=wrap;html=1;aspect=fixed;strokeColor=#000033;opacity=80;" vertex="1" parent="itMjBbJYnPVh6DlZqISK-1">
          <mxGeometry x="216.5" y="880" width="30" height="30" as="geometry" />
        </mxCell>
        <mxCell id="LQT31I-uwIE2f66V96Cz-25" value="" style="endArrow=classic;html=1;opacity=80;" edge="1" parent="itMjBbJYnPVh6DlZqISK-1">
          <mxGeometry width="50" height="50" relative="1" as="geometry">
            <mxPoint x="170" y="680" as="sourcePoint" />
            <mxPoint x="100" y="750" as="targetPoint" />
          </mxGeometry>
        </mxCell>
        <mxCell id="LQT31I-uwIE2f66V96Cz-26" value="" style="endArrow=classic;html=1;opacity=80;entryX=0.5;entryY=0;entryDx=0;entryDy=0;" edge="1" parent="itMjBbJYnPVh6DlZqISK-1" target="LQT31I-uwIE2f66V96Cz-19">
          <mxGeometry width="50" height="50" relative="1" as="geometry">
            <mxPoint x="300" y="680" as="sourcePoint" />
            <mxPoint x="110" y="760" as="targetPoint" />
          </mxGeometry>
        </mxCell>
        <mxCell id="LQT31I-uwIE2f66V96Cz-27" value="sai tài khoản" style="rounded=1;whiteSpace=wrap;html=1;strokeColor=#000033;opacity=80;" vertex="1" parent="itMjBbJYnPVh6DlZqISK-1">
          <mxGeometry x="310" y="560" width="100" height="25" as="geometry" />
        </mxCell>
        <mxCell id="LQT31I-uwIE2f66V96Cz-28" value="Tài khoản mật khẩu đang sử dụng" style="text;html=1;strokeColor=none;fillColor=none;align=center;verticalAlign=middle;whiteSpace=wrap;rounded=0;opacity=80;" vertex="1" parent="itMjBbJYnPVh6DlZqISK-1">
          <mxGeometry x="60" y="640" width="170" height="20" as="geometry" />
        </mxCell>
      </root>
    </mxGraphModel>
  </diagram>
  <diagram id="l_IzB50cU8nT9mvXzQMV" name="Page-3">
    <mxGraphModel dx="1043" dy="941" grid="1" gridSize="10" guides="1" tooltips="1" connect="1" arrows="1" fold="1" page="1" pageScale="1" pageWidth="827" pageHeight="1169" math="0" shadow="0">
      <root>
        <mxCell id="v0zOruqw-U3GGtCakOmk-0" />
        <mxCell id="v0zOruqw-U3GGtCakOmk-1" parent="v0zOruqw-U3GGtCakOmk-0" />
        <mxCell id="oFEJsuBwixzfTZipwdrx-0" value="" style="rounded=0;html=1;jettySize=auto;orthogonalLoop=1;fontSize=11;endArrow=block;endFill=0;endSize=8;strokeWidth=1;shadow=0;labelBackgroundColor=none;edgeStyle=orthogonalEdgeStyle;opacity=80;" edge="1" parent="v0zOruqw-U3GGtCakOmk-1" source="oFEJsuBwixzfTZipwdrx-1" target="oFEJsuBwixzfTZipwdrx-3">
          <mxGeometry relative="1" as="geometry" />
        </mxCell>
        <mxCell id="oFEJsuBwixzfTZipwdrx-1" value="Đăng nhập" style="rounded=1;whiteSpace=wrap;html=1;fontSize=12;glass=0;strokeWidth=1;shadow=0;opacity=80;" vertex="1" parent="v0zOruqw-U3GGtCakOmk-1">
          <mxGeometry x="160" y="70" width="120" height="40" as="geometry" />
        </mxCell>
        <mxCell id="oFEJsuBwixzfTZipwdrx-2" value="Yes" style="rounded=0;html=1;jettySize=auto;orthogonalLoop=1;fontSize=11;endArrow=block;endFill=0;endSize=8;strokeWidth=1;shadow=0;labelBackgroundColor=none;edgeStyle=orthogonalEdgeStyle;opacity=80;" edge="1" parent="v0zOruqw-U3GGtCakOmk-1" source="oFEJsuBwixzfTZipwdrx-3">
          <mxGeometry y="20" relative="1" as="geometry">
            <mxPoint as="offset" />
            <mxPoint x="220" y="290" as="targetPoint" />
          </mxGeometry>
        </mxCell>
        <mxCell id="oFEJsuBwixzfTZipwdrx-3" value="" style="rhombus;whiteSpace=wrap;html=1;shadow=0;fontFamily=Helvetica;fontSize=12;align=center;strokeWidth=1;spacing=6;spacingTop=-4;opacity=80;" vertex="1" parent="v0zOruqw-U3GGtCakOmk-1">
          <mxGeometry x="170" y="170" width="100" height="60" as="geometry" />
        </mxCell>
        <mxCell id="oFEJsuBwixzfTZipwdrx-4" value="" style="edgeStyle=orthogonalEdgeStyle;rounded=0;html=1;jettySize=auto;orthogonalLoop=1;fontSize=11;endArrow=block;endFill=0;endSize=8;strokeWidth=1;shadow=0;labelBackgroundColor=none;entryX=0;entryY=0.5;entryDx=0;entryDy=0;opacity=80;" edge="1" parent="v0zOruqw-U3GGtCakOmk-1" target="oFEJsuBwixzfTZipwdrx-6">
          <mxGeometry y="10" relative="1" as="geometry">
            <mxPoint as="offset" />
            <mxPoint x="260" y="300" as="sourcePoint" />
            <mxPoint x="310" y="330" as="targetPoint" />
          </mxGeometry>
        </mxCell>
        <mxCell id="oFEJsuBwixzfTZipwdrx-5" value="Hiển thị danh sách sản phẩm" style="rounded=1;whiteSpace=wrap;html=1;fontSize=12;glass=0;strokeWidth=1;shadow=0;opacity=80;" vertex="1" parent="v0zOruqw-U3GGtCakOmk-1">
          <mxGeometry x="160" y="430" width="120" height="40" as="geometry" />
        </mxCell>
        <mxCell id="oFEJsuBwixzfTZipwdrx-6" value="Thông báo đăng nhập thành công" style="rounded=1;whiteSpace=wrap;html=1;fontSize=12;glass=0;strokeWidth=1;shadow=0;opacity=80;" vertex="1" parent="v0zOruqw-U3GGtCakOmk-1">
          <mxGeometry x="320" y="310" width="120" height="40" as="geometry" />
        </mxCell>
        <mxCell id="oFEJsuBwixzfTZipwdrx-7" value="" style="endArrow=none;html=1;exitX=1;exitY=0.5;exitDx=0;exitDy=0;opacity=80;" edge="1" parent="v0zOruqw-U3GGtCakOmk-1" source="oFEJsuBwixzfTZipwdrx-3">
          <mxGeometry width="50" height="50" relative="1" as="geometry">
            <mxPoint x="380" y="390" as="sourcePoint" />
            <mxPoint x="380" y="210" as="targetPoint" />
          </mxGeometry>
        </mxCell>
        <mxCell id="oFEJsuBwixzfTZipwdrx-8" value="" style="endArrow=none;html=1;opacity=80;" edge="1" parent="v0zOruqw-U3GGtCakOmk-1">
          <mxGeometry width="50" height="50" relative="1" as="geometry">
            <mxPoint x="380" y="210" as="sourcePoint" />
            <mxPoint x="380" y="100" as="targetPoint" />
          </mxGeometry>
        </mxCell>
        <mxCell id="oFEJsuBwixzfTZipwdrx-9" value="" style="endArrow=classic;html=1;entryX=1;entryY=0.75;entryDx=0;entryDy=0;opacity=80;" edge="1" parent="v0zOruqw-U3GGtCakOmk-1" target="oFEJsuBwixzfTZipwdrx-1">
          <mxGeometry width="50" height="50" relative="1" as="geometry">
            <mxPoint x="380" y="100" as="sourcePoint" />
            <mxPoint x="430" y="340" as="targetPoint" />
          </mxGeometry>
        </mxCell>
        <mxCell id="oFEJsuBwixzfTZipwdrx-10" value="sai tài khoản" style="whiteSpace=wrap;html=1;opacity=80;" vertex="1" parent="v0zOruqw-U3GGtCakOmk-1">
          <mxGeometry x="280" y="180" width="90" height="30" as="geometry" />
        </mxCell>
        <mxCell id="oFEJsuBwixzfTZipwdrx-11" value="Trang chủ" style="rounded=1;whiteSpace=wrap;html=1;fontSize=12;glass=0;strokeWidth=1;shadow=0;opacity=80;" vertex="1" parent="v0zOruqw-U3GGtCakOmk-1">
          <mxGeometry x="20" y="310" width="120" height="40" as="geometry" />
        </mxCell>
        <mxCell id="oFEJsuBwixzfTZipwdrx-12" value="" style="shape=link;html=1;opacity=80;" edge="1" parent="v0zOruqw-U3GGtCakOmk-1">
          <mxGeometry width="100" relative="1" as="geometry">
            <mxPoint x="170" y="290" as="sourcePoint" />
            <mxPoint x="270" y="290" as="targetPoint" />
          </mxGeometry>
        </mxCell>
        <mxCell id="oFEJsuBwixzfTZipwdrx-13" value="" style="edgeStyle=orthogonalEdgeStyle;rounded=0;html=1;jettySize=auto;orthogonalLoop=1;fontSize=11;endArrow=block;endFill=0;endSize=8;strokeWidth=1;shadow=0;labelBackgroundColor=none;entryX=1;entryY=0.5;entryDx=0;entryDy=0;opacity=80;" edge="1" parent="v0zOruqw-U3GGtCakOmk-1" target="oFEJsuBwixzfTZipwdrx-11">
          <mxGeometry y="10" relative="1" as="geometry">
            <mxPoint as="offset" />
            <mxPoint x="190" y="300" as="sourcePoint" />
            <mxPoint x="330" y="340" as="targetPoint" />
          </mxGeometry>
        </mxCell>
        <mxCell id="oFEJsuBwixzfTZipwdrx-14" value="" style="shape=link;html=1;width=-4;opacity=80;" edge="1" parent="v0zOruqw-U3GGtCakOmk-1">
          <mxGeometry width="100" relative="1" as="geometry">
            <mxPoint x="170" y="360" as="sourcePoint" />
            <mxPoint x="270" y="360" as="targetPoint" />
          </mxGeometry>
        </mxCell>
        <mxCell id="oFEJsuBwixzfTZipwdrx-15" value="" style="endArrow=classic;html=1;exitX=1;exitY=0.75;exitDx=0;exitDy=0;opacity=80;" edge="1" parent="v0zOruqw-U3GGtCakOmk-1" source="oFEJsuBwixzfTZipwdrx-11">
          <mxGeometry width="50" height="50" relative="1" as="geometry">
            <mxPoint x="380" y="390" as="sourcePoint" />
            <mxPoint x="210" y="360" as="targetPoint" />
          </mxGeometry>
        </mxCell>
        <mxCell id="oFEJsuBwixzfTZipwdrx-16" value="" style="endArrow=classic;html=1;exitX=0;exitY=0.75;exitDx=0;exitDy=0;opacity=80;" edge="1" parent="v0zOruqw-U3GGtCakOmk-1" source="oFEJsuBwixzfTZipwdrx-6">
          <mxGeometry width="50" height="50" relative="1" as="geometry">
            <mxPoint x="380" y="390" as="sourcePoint" />
            <mxPoint x="240" y="360" as="targetPoint" />
          </mxGeometry>
        </mxCell>
        <mxCell id="oFEJsuBwixzfTZipwdrx-17" value="" style="endArrow=classic;html=1;entryX=0.5;entryY=0;entryDx=0;entryDy=0;opacity=80;" edge="1" parent="v0zOruqw-U3GGtCakOmk-1" target="oFEJsuBwixzfTZipwdrx-5">
          <mxGeometry width="50" height="50" relative="1" as="geometry">
            <mxPoint x="220" y="360" as="sourcePoint" />
            <mxPoint x="430" y="340" as="targetPoint" />
          </mxGeometry>
        </mxCell>
        <mxCell id="oFEJsuBwixzfTZipwdrx-18" value="Thêm vào giỏ hàng" style="rounded=1;whiteSpace=wrap;html=1;fontSize=12;glass=0;strokeWidth=1;shadow=0;opacity=80;" vertex="1" parent="v0zOruqw-U3GGtCakOmk-1">
          <mxGeometry x="160" y="520" width="120" height="40" as="geometry" />
        </mxCell>
        <mxCell id="oFEJsuBwixzfTZipwdrx-19" value="" style="endArrow=classic;html=1;exitX=0.5;exitY=1;exitDx=0;exitDy=0;opacity=80;" edge="1" parent="v0zOruqw-U3GGtCakOmk-1" source="oFEJsuBwixzfTZipwdrx-5">
          <mxGeometry width="50" height="50" relative="1" as="geometry">
            <mxPoint x="380" y="380" as="sourcePoint" />
            <mxPoint x="220" y="520" as="targetPoint" />
          </mxGeometry>
        </mxCell>
        <mxCell id="oFEJsuBwixzfTZipwdrx-21" value="" style="endArrow=classic;html=1;exitX=0.5;exitY=1;exitDx=0;exitDy=0;entryX=0.5;entryY=0;entryDx=0;entryDy=0;opacity=80;" edge="1" parent="v0zOruqw-U3GGtCakOmk-1" source="oFEJsuBwixzfTZipwdrx-18">
          <mxGeometry width="50" height="50" relative="1" as="geometry">
            <mxPoint x="380" y="490" as="sourcePoint" />
            <mxPoint x="220" y="610" as="targetPoint" />
          </mxGeometry>
        </mxCell>
        <mxCell id="oFEJsuBwixzfTZipwdrx-22" value="" style="endArrow=none;html=1;exitX=1;exitY=0.5;exitDx=0;exitDy=0;opacity=80;" edge="1" parent="v0zOruqw-U3GGtCakOmk-1">
          <mxGeometry width="50" height="50" relative="1" as="geometry">
            <mxPoint x="280" y="630" as="sourcePoint" />
            <mxPoint x="400" y="630" as="targetPoint" />
          </mxGeometry>
        </mxCell>
        <mxCell id="oFEJsuBwixzfTZipwdrx-23" value="" style="endArrow=none;html=1;opacity=80;" edge="1" parent="v0zOruqw-U3GGtCakOmk-1">
          <mxGeometry width="50" height="50" relative="1" as="geometry">
            <mxPoint x="400" y="630" as="sourcePoint" />
            <mxPoint x="400" y="450" as="targetPoint" />
          </mxGeometry>
        </mxCell>
        <mxCell id="oFEJsuBwixzfTZipwdrx-24" value="" style="endArrow=classic;html=1;entryX=1;entryY=0.5;entryDx=0;entryDy=0;opacity=80;" edge="1" parent="v0zOruqw-U3GGtCakOmk-1" target="oFEJsuBwixzfTZipwdrx-5">
          <mxGeometry width="50" height="50" relative="1" as="geometry">
            <mxPoint x="400" y="450" as="sourcePoint" />
            <mxPoint x="430" y="540" as="targetPoint" />
            <Array as="points">
              <mxPoint x="370" y="450" />
            </Array>
          </mxGeometry>
        </mxCell>
        <mxCell id="oFEJsuBwixzfTZipwdrx-26" value="" style="rhombus;whiteSpace=wrap;html=1;opacity=80;" vertex="1" parent="v0zOruqw-U3GGtCakOmk-1">
          <mxGeometry x="170" y="610" width="100" height="50" as="geometry" />
        </mxCell>
        <mxCell id="oFEJsuBwixzfTZipwdrx-28" value="Thông báo thành công" style="rounded=1;whiteSpace=wrap;html=1;fontSize=12;glass=0;strokeWidth=1;shadow=0;opacity=80;" vertex="1" parent="v0zOruqw-U3GGtCakOmk-1">
          <mxGeometry x="160" y="710" width="120" height="40" as="geometry" />
        </mxCell>
        <mxCell id="oFEJsuBwixzfTZipwdrx-29" value="" style="endArrow=classic;html=1;exitX=0.5;exitY=1;exitDx=0;exitDy=0;opacity=80;" edge="1" parent="v0zOruqw-U3GGtCakOmk-1" source="oFEJsuBwixzfTZipwdrx-26" target="oFEJsuBwixzfTZipwdrx-28">
          <mxGeometry width="50" height="50" relative="1" as="geometry">
            <mxPoint x="380" y="680" as="sourcePoint" />
            <mxPoint x="430" y="630" as="targetPoint" />
          </mxGeometry>
        </mxCell>
        <mxCell id="oFEJsuBwixzfTZipwdrx-30" value="" style="endArrow=classic;html=1;opacity=80;" edge="1" parent="v0zOruqw-U3GGtCakOmk-1">
          <mxGeometry width="50" height="50" relative="1" as="geometry">
            <mxPoint x="280" y="729.5" as="sourcePoint" />
            <mxPoint x="510" y="729.5" as="targetPoint" />
          </mxGeometry>
        </mxCell>
        <mxCell id="oFEJsuBwixzfTZipwdrx-31" value="" style="ellipse;shape=doubleEllipse;whiteSpace=wrap;html=1;aspect=fixed;strokeColor=#000033;opacity=80;" vertex="1" parent="v0zOruqw-U3GGtCakOmk-1">
          <mxGeometry x="510" y="717.5" width="25" height="25" as="geometry" />
        </mxCell>
        <mxCell id="oFEJsuBwixzfTZipwdrx-32" value="Thêm giỏ hàng thất bại" style="text;html=1;strokeColor=none;fillColor=none;align=center;verticalAlign=middle;whiteSpace=wrap;rounded=0;opacity=80;" vertex="1" parent="v0zOruqw-U3GGtCakOmk-1">
          <mxGeometry x="290" y="600" width="110" height="30" as="geometry" />
        </mxCell>
      </root>
    </mxGraphModel>
  </diagram>
</mxfile>
